# xmcd
#
# Track frame offsets: 
#        203
#        21154
#        38306
#        66629
#        91166
#        112126
#        136736
#        158147
#        169948
#        188436
#        206122
#        216011
#        235713
#        254377
#        280217
#
# Disc length: 3997 seconds
#
# Revision: 1
# Processed by: cddbd v1.5.2PL0 Copyright (c) Steve Scherf et al.
# Submitted via: ExactAudioCopy v0.95b3
#
DISCID=ce0f9b0f
DTITLE=Yasmine - Yesterday's tomorrow
DYEAR=2004
DGENRE=Easy Listening
TTITLE0=The Guests
TTITLE1=Dance Me To The End Of Love
TTITLE2=First We Taker Manhattan
TTITLE3=The Smokey Life
TTITLE4=The Partisan
TTITLE5=Famous Blue Rainecoat
TTITLE6=In My Secret Life
TTITLE7=You Know Who I Am
TTITLE8=I'm Your Man
TTITLE9=Came So Far Beauty
TTITLE10=Who By Fire
TTITLE11=Hey,That's No Way To Say Goodbye
TTITLE12=The Window
TTITLE13=Avalanche
TTITLE14=Bird On The Wire
EXTD=
EXTT0=
EXTT1=
EXTT2=
EXTT3=
EXTT4=
EXTT5=
EXTT6=
EXTT7=
EXTT8=
EXTT9=
EXTT10=
EXTT11=
EXTT12=
EXTT13=
EXTT14=
PLAYORDER=
